<svg width="20" height="20" viewBox="0 0 20 20" fill="none" xmlns="http://www.w3.org/2000/svg">
<g id="google 1" clip-path="url(#clip0_351_972)">
<g id="Group">
<path id="Vector" d="M4.6875 10.0001C4.6875 9.00919 4.96051 8.08095 5.4348 7.28614V3.91474H2.0634C0.725313 5.65255 0 7.77048 0 10.0001C0 12.2297 0.725313 14.3476 2.0634 16.0854H5.4348V12.714C4.96051 11.9192 4.6875 10.991 4.6875 10.0001Z" fill="#FBBD00"/>
<path id="Vector_2" d="M10 15.3126L7.65625 17.6564L10 20.0001C12.2296 20.0001 14.3475 19.2748 16.0854 17.9367V14.5689H12.7175C11.9158 15.0449 10.9836 15.3126 10 15.3126Z" fill="#0F9D58"/>
<path id="Vector_3" d="M5.43488 12.7139L2.06348 16.0854C2.3284 16.4294 2.61688 16.7589 2.92902 17.0711C4.81777 18.9598 7.32898 20 10.0001 20V15.3125C8.06164 15.3125 6.3627 14.2688 5.43488 12.7139Z" fill="#31AA52"/>
<path id="Vector_4" d="M20 10.0001C20 9.39169 19.9449 8.78216 19.8363 8.18849L19.7483 7.70806H10V12.3956H14.7442C14.2835 13.312 13.5752 14.0597 12.7175 14.5689L16.0853 17.9367C16.4294 17.6718 16.7589 17.3833 17.0711 17.0712C18.9598 15.1824 20 12.6712 20 10.0001Z" fill="#3C79E6"/>
<path id="Vector_5" d="M13.7565 6.24354L14.1708 6.65783L17.4854 3.3433L17.0711 2.92901C15.1823 1.04026 12.6711 6.10352e-05 10 6.10352e-05L7.65625 2.34381L10 4.68756C11.419 4.68756 12.7531 5.24014 13.7565 6.24354Z" fill="#CF2D48"/>
<path id="Vector_6" d="M10.0001 4.68756V6.10352e-05C7.32902 6.10352e-05 4.81781 1.04026 2.92902 2.92897C2.61688 3.24112 2.3284 3.57061 2.06348 3.91471L5.43488 7.28612C6.36273 5.73131 8.06168 4.68756 10.0001 4.68756Z" fill="#EB4132"/>
</g>
</g>
<defs>
<clipPath id="clip0_351_972">
<rect width="20" height="20" fill="white"/>
</clipPath>
</defs>
</svg>
