<svg width="41" height="41" viewBox="0 0 41 41" fill="none" xmlns="http://www.w3.org/2000/svg">
<g id="001-timetable" clip-path="url(#clip0_13_1569)">
<path id="Vector" d="M30.0845 19.3115C24.1441 19.3115 19.3116 24.1441 19.3116 30.0845C19.3116 36.0249 24.1441 40.8575 30.0845 40.8575C36.0249 40.8575 40.8575 36.0249 40.8575 30.0845C40.8575 24.1441 36.0249 19.3115 30.0845 19.3115ZM34.8725 31.2815H30.0845C29.4231 31.2815 28.8875 30.746 28.8875 30.0845V25.2965C28.8875 24.635 29.4231 24.0995 30.0845 24.0995C30.746 24.0995 31.2815 24.635 31.2815 25.2965V28.8875H34.8725C35.534 28.8875 36.0695 29.423 36.0695 30.0845C36.0695 30.746 35.534 31.2815 34.8725 31.2815Z" fill="#FF3811"/>
<path id="Vector_2" d="M38.3837 3.67087C38.3837 3.00037 37.8572 2.47388 37.1867 2.47388H31.2017V6.06487C31.2017 6.73506 30.6752 7.26186 30.0047 7.26186C29.3342 7.26186 28.8077 6.73506 28.8077 6.06487V2.47388H24.0197V6.06487C24.0197 6.73506 23.4932 7.26186 22.8227 7.26186C22.1522 7.26186 21.6257 6.73506 21.6257 6.06487V2.47388H16.8378V6.06487C16.8378 6.73506 16.3113 7.26186 15.6408 7.26186C14.9703 7.26186 14.4438 6.73506 14.4438 6.06487V2.47388H9.65577V6.06487C9.65577 6.73506 9.12928 7.26186 8.45878 7.26186C7.78827 7.26186 7.26178 6.73506 7.26178 6.06487V2.47388H1.197C0.526491 2.47388 0 3.00037 0 3.67087V9.65586H38.3837V3.67087Z" fill="white"/>
<path id="Vector_3" d="M18.0347 24.0198H18.3222C18.7592 23.1706 19.2523 22.3555 19.8558 21.6258H18.0347C17.3733 21.6258 16.8378 21.0902 16.8378 20.4288C16.8378 19.7673 17.3733 19.2318 18.0347 19.2318H20.4287C20.9191 19.2318 21.3377 19.5276 21.5229 19.9494C23.8162 18.012 26.7744 16.8378 30.0047 16.8378H27.6107C26.9493 16.8378 26.4137 16.3023 26.4137 15.6408C26.4137 14.9793 26.9493 14.4438 27.6107 14.4438H30.0047C30.6662 14.4438 31.2017 14.9793 31.2017 15.6408C31.2017 16.3023 30.6662 16.8378 30.0047 16.8378C33.1852 16.8378 36.1057 17.9718 38.3837 19.8558V12.0498H0V34.7927C0 35.4542 0.535531 35.9897 1.197 35.9897H18.2913C17.3689 34.1917 16.8378 32.1606 16.8378 30.0048C16.8378 28.6871 17.074 27.4315 17.4359 26.2305C17.0846 26.0219 16.8378 25.6554 16.8378 25.2168C16.8378 24.5553 17.3733 24.0198 18.0347 24.0198ZM18.0347 14.4438H20.4287C21.0902 14.4438 21.6257 14.9793 21.6257 15.6408C21.6257 16.3023 21.0902 16.8378 20.4287 16.8378H18.0347C17.3733 16.8378 16.8378 16.3023 16.8378 15.6408C16.8378 14.9793 17.3733 14.4438 18.0347 14.4438ZM10.8528 31.2017H8.45878C7.79731 31.2017 7.26178 30.6662 7.26178 30.0048C7.26178 29.3433 7.79731 28.8078 8.45878 28.8078H10.8528C11.5142 28.8078 12.0498 29.3433 12.0498 30.0048C12.0498 30.6662 11.5142 31.2017 10.8528 31.2017ZM10.8528 26.4138H8.45878C7.79731 26.4138 7.26178 25.8782 7.26178 25.2168C7.26178 24.5553 7.79731 24.0198 8.45878 24.0198H10.8528C11.5142 24.0198 12.0498 24.5553 12.0498 25.2168C12.0498 25.8782 11.5142 26.4138 10.8528 26.4138ZM10.8528 21.6258H8.45878C7.79731 21.6258 7.26178 21.0902 7.26178 20.4288C7.26178 19.7673 7.79731 19.2318 8.45878 19.2318H10.8528C11.5142 19.2318 12.0498 19.7673 12.0498 20.4288C12.0498 21.0902 11.5142 21.6258 10.8528 21.6258ZM10.8528 16.8378H8.45878C7.79731 16.8378 7.26178 16.3023 7.26178 15.6408C7.26178 14.9793 7.79731 14.4438 8.45878 14.4438H10.8528C11.5142 14.4438 12.0498 14.9793 12.0498 15.6408C12.0498 16.3023 11.5142 16.8378 10.8528 16.8378Z" fill="white"/>
<path id="Vector_4" d="M9.65577 1.197C9.65577 0.526492 9.12928 0 8.45878 0C7.78827 0 7.26178 0.526492 7.26178 1.197V2.47379H9.65577V1.197Z" fill="white"/>
<path id="Vector_5" d="M16.8377 1.197C16.8377 0.526492 16.3113 0 15.6408 0C14.9702 0 14.4438 0.526492 14.4438 1.197V2.47379H16.8377V1.197Z" fill="white"/>
<path id="Vector_6" d="M24.0197 1.197C24.0197 0.526492 23.4932 0 22.8227 0C22.1522 0 21.6257 0.526492 21.6257 1.197V2.47379H24.0197V1.197Z" fill="white"/>
<path id="Vector_7" d="M31.2017 1.197C31.2017 0.526492 30.6752 0 30.0047 0C29.3342 0 28.8077 0.526492 28.8077 1.197V2.47379H31.2017V1.197Z" fill="white"/>
</g>
<defs>
<clipPath id="clip0_13_1569">
<rect width="40.8575" height="40.8575" fill="white"/>
</clipPath>
</defs>
</svg>
