<svg width="37" height="41" viewBox="0 0 37 41" fill="none" xmlns="http://www.w3.org/2000/svg">
<g id="Group 35">
<g id="Group">
<g id="Group_2">
<path id="Vector" d="M18.1468 7.25024C16.064 7.25024 14.3695 8.94479 14.3695 11.0275C14.3695 13.1103 16.064 14.8048 18.1468 14.8048C20.2296 14.8048 21.9241 13.1103 21.9241 11.0275C21.9241 8.94479 20.2296 7.25024 18.1468 7.25024Z" fill="white"/>
</g>
</g>
<g id="Group_3">
<g id="Group_4">
<path id="Vector_2" d="M30.4538 30.3703C28.5368 29.8243 26.2595 29.4212 23.7812 29.1785C21.3781 32.8066 19.3021 35.4402 19.0961 35.6999C18.8663 35.9897 18.5166 36.1586 18.1468 36.1586C17.777 36.1586 17.4274 35.9897 17.1976 35.6999C16.9916 35.4402 14.9155 32.8066 12.5125 29.1785C10.0341 29.4212 7.75688 29.8243 5.83989 30.3703C1.96485 31.4742 0 33.014 0 34.9469C0 36.8798 1.96485 38.4195 5.83989 39.5234C9.14357 40.4646 13.5141 40.9828 18.1468 40.9828C22.7796 40.9828 27.1501 40.4645 30.4537 39.5235C34.3287 38.4196 36.2936 36.8799 36.2936 34.947C36.2936 33.014 34.3288 31.4742 30.4538 30.3703Z" fill="white"/>
</g>
</g>
<g id="Group_5">
<g id="Group_6">
<path id="Vector_3" d="M18.1469 0C12.0663 0 7.11925 4.94691 7.11925 11.0277C7.11925 14.2727 9.17215 19.288 13.0561 25.5312C15.0285 28.7018 17.0152 31.4439 18.1468 32.9531C19.2815 31.4396 21.2757 28.6868 23.2501 25.5111C27.1258 19.2774 29.1745 14.2691 29.1745 11.0277C29.1745 4.94691 24.2275 0 18.1469 0ZM18.1469 17.2284C14.7279 17.2284 11.9462 14.4467 11.9462 11.0277C11.9462 7.60855 14.7279 4.82693 18.1469 4.82693C21.5659 4.82693 24.3476 7.60855 24.3476 11.0277C24.3476 14.4468 21.5659 17.2284 18.1469 17.2284Z" fill="#FF3811"/>
</g>
</g>
</g>
</svg>
